HIERARCHY
ROOT Hips
{
	OFFSET 0.000000 0.000000 0.000000 
	CHANNELS 6 Xposition Yposition Zposition Zrotation Yrotation Xrotation
	JOINT LeftUpLeg
	{
		OFFSET 1.363060 -1.794630 0.839290 
		CHANNELS 3 Zrotation Yrotation Xrotation
		JOINT LeftLeg
		{
			OFFSET 2.448110 -6.726130 0.000000 
			CHANNELS 3 Zrotation Yrotation Xrotation
			JOINT LeftFoot
			{
				OFFSET 2.562200 -7.039590 0.000000 
				CHANNELS 3 Zrotation Yrotation Xrotation
				JOINT LeftToeBase
				{
					OFFSET 0.157640 -0.433110 2.322550 
					CHANNELS 3 Zrotation Yrotation Xrotation
					End Site
					{
						OFFSET 0.000000 0.000000 0.000000 
					}
				}
			}
		}
	}
	JOINT RightUpLeg
	{
		OFFSET -1.305520 -1.794630 0.839290 
		CHANNELS 3 Zrotation Yrotation Xrotation
		JOINT RightLeg
		{
			OFFSET -2.542530 -6.985550 0.000000 
			CHANNELS 3 Zrotation Yrotation Xrotation
			JOINT RightFoot
			{
				OFFSET -2.568260 -7.056230 0.000000 
				CHANNELS 3 Zrotation Yrotation Xrotation
				JOINT RightToeBase
				{
					OFFSET -0.164730 -0.452590 2.363150 
					CHANNELS 3 Zrotation Yrotation Xrotation
					End Site
					{
						OFFSET 0.000000 0.000000 0.000000 
					}
				}
			}
		}
	}
	JOINT Spine
	{
		OFFSET 0.028270 2.035590 -0.193380 
		CHANNELS 3 Zrotation Yrotation Xrotation
		JOINT Spine1
		{
			OFFSET 0.056720 2.048850 -0.042750 
			CHANNELS 3 Zrotation Yrotation Xrotation
			JOINT Neck1
			{
				OFFSET -0.054170 1.746240 0.172020 
				CHANNELS 3 Zrotation Yrotation Xrotation
				JOINT Head
				{
					OFFSET 0.104070 1.761360 -0.123970 
					CHANNELS 3 Zrotation Yrotation Xrotation
					End Site
					{
						OFFSET 0.000000 0.000000 0.000000 
					}
				}
			}
			JOINT LeftArm
			{
				OFFSET 3.362410 1.200890 -0.311210 
				CHANNELS 3 Zrotation Yrotation Xrotation
				JOINT LeftForeArm
				{
					OFFSET 4.983000 -0.000000 -0.000000 
					CHANNELS 3 Zrotation Yrotation Xrotation
					JOINT LeftHand
					{
						OFFSET 3.483560 -0.000000 -0.000000 
						CHANNELS 3 Zrotation Yrotation Xrotation
						JOINT LeftHandIndex1
						{
							OFFSET 0.715260 -0.000000 -0.000000 
							CHANNELS 3 Zrotation Yrotation Xrotation
							End Site
							{
								OFFSET 0.000000 0.000000 0.000000 
							}
						}
					}
				}
			}
			JOINT RightArm
			{
				OFFSET -3.136600 1.374050 -0.404650 
				CHANNELS 3 Zrotation Yrotation Xrotation
				JOINT RightForeArm
				{
					OFFSET -5.241900 -0.000000 -0.000000 
					CHANNELS 3 Zrotation Yrotation Xrotation
					JOINT RightHand
					{
						OFFSET -3.444170 -0.000000 -0.000000 
						CHANNELS 3 Zrotation Yrotation Xrotation
						JOINT RightHandIndex1
						{
							OFFSET -0.622530 -0.000000 -0.000000 
							CHANNELS 3 Zrotation Yrotation Xrotation
							End Site
							{
								OFFSET 0.000000 0.000000 0.000000 
							}
						}
					}
				}
			}
		}
	}
}
MOTION
Frames: 6
Frame Time: 0.041667
-0.646022 18.306048 5.709602 -4.194012 -2.630406 -1.542891 -11.078529 -10.126318 -3.017041 1.056400 7.208945 23.908181 -0.668288 7.461569 -16.661097 8.068400 -16.169300 -52.808700 2.861650 1.941192 -1.806268 0.067161 0.696641 1.421146 0.307260 -1.004639 6.053348 0.000000 0.000000 0.000000 0.208824 1.165289 24.671076 -2.739764 1.124112 -14.097995 4.510411 -3.039952 28.049247 0.705300 -0.718000 9.207800 -94.317291 9.558245 21.478513 23.657920 -32.907872 -6.101558 0.658290 0.173958 10.114543 -7.125000 0.000000 0.000000 94.135734 -12.368923 24.392579 -31.556893 39.647566 -9.078684 1.125736 -3.315939 15.461616 7.125000 0.000000 0.000000 
-0.646611 18.305656 5.709111 -4.131433 -2.637194 -1.468908 -11.078194 -10.080413 -3.064551 1.052660 7.219777 23.896795 -0.668101 7.446869 -16.607628 8.070700 -16.171000 -52.816800 2.861116 1.939001 -1.813287 0.068465 0.691940 1.420478 0.305987 -1.008188 6.049639 0.000000 0.000000 0.000000 -0.334844 1.307897 24.071170 -2.664094 1.152437 -14.160727 4.632481 -3.129574 28.303975 0.714300 -0.734100 9.225000 -94.160849 9.593062 21.609908 23.215001 -32.417395 -5.911302 0.676243 0.155641 10.062642 -7.125000 0.000000 0.000000 94.272362 -12.571927 24.219729 -31.592750 39.663705 -9.106059 1.129564 -3.319941 15.473448 7.125000 0.000000 0.000000 
-0.647298 18.306343 5.707639 -4.150822 -2.669206 -1.454769 -11.042465 -10.042072 -3.097822 1.054513 7.222363 23.901682 -0.660367 7.415409 -16.603061 8.060800 -16.163800 -52.781200 2.859939 1.939639 -1.812175 0.068470 0.692881 1.420871 0.306286 -1.007219 6.049944 0.000000 0.000000 0.000000 -0.354870 1.319084 24.097748 -2.691900 1.151922 -14.156634 4.801759 -3.176134 28.357146 0.752700 -0.735200 9.244700 -94.171207 9.831505 21.649810 23.741500 -32.972739 -6.143492 0.664297 0.178326 9.981646 -7.125000 0.000000 0.000000 94.302260 -12.546268 24.211216 -31.592889 39.675951 -9.115773 1.131670 -3.324070 15.474085 7.125000 0.000000 0.000000 
-0.647199 18.306931 5.706364 -4.138985 -2.691531 -1.457471 -11.038591 -10.039706 -3.103612 1.053848 7.223384 23.902082 -0.664989 7.435317 -16.608759 8.072400 -16.172200 -52.823000 2.855329 1.941458 -1.808077 0.068664 0.695942 1.422027 0.307241 -1.004077 6.050868 0.000000 0.000000 0.000000 -0.490261 1.331581 24.195016 -2.706149 1.145372 -14.144791 4.936522 -3.203534 28.296223 0.779100 -0.733100 9.234000 -94.077042 10.462248 22.028581 25.231343 -34.491187 -6.812677 0.623802 0.248630 9.578852 -7.125000 0.000000 0.000000 94.351382 -12.491249 24.199439 -31.576223 39.671804 -9.106339 1.129789 -3.323962 15.568805 7.125000 0.000000 0.000000 
-0.647003 18.307029 5.705971 -4.125356 -2.687491 -1.455075 -11.046379 -10.060957 -3.107106 1.053353 7.224685 23.904990 -0.673614 7.469171 -16.611343 8.083500 -16.180300 -52.862900 2.853549 1.941752 -1.807239 0.068893 0.696552 1.422236 0.307411 -1.003389 6.050873 0.000000 0.000000 0.000000 -0.589364 1.342422 24.221004 -2.655053 1.151209 -14.138773 4.840270 -3.163133 28.205716 0.755700 -0.725900 9.209800 -94.021000 9.791569 22.132060 23.675997 -32.905505 -6.116917 0.671005 0.191060 9.543377 -7.125000 0.000000 0.000000 94.371740 -12.469119 24.191588 -31.569500 39.673664 -9.103749 1.131077 -3.325594 15.607602 7.125000 0.000000 0.000000 
-0.646709 18.307128 5.705382 -4.130864 -2.687487 -1.453184 -11.045400 -10.050350 -3.123309 1.054564 7.224689 23.908714 -0.670050 7.455894 -16.613443 8.066700 -16.168100 -52.802500 2.854231 1.941593 -1.807350 0.068788 0.696407 1.422074 0.307336 -1.003639 6.050990 0.000000 0.000000 0.000000 -0.535134 1.330364 24.257223 -2.638560 1.152538 -14.140528 4.628807 -3.093054 28.194425 0.708200 -0.716000 9.210700 -94.033655 9.563835 22.142736 23.173690 -32.381173 -5.900341 0.685622 0.169219 9.548163 -7.125000 0.000000 0.000000 94.357318 -12.445728 24.201202 -31.555341 39.665886 -9.097564 1.128130 -3.326253 15.588388 7.125000 0.000000 0.000000 
